<mxfile host="app.diagrams.net" modified="2023-01-13T07:37:44.852Z" agent="5.0 (X11)" version="20.8.5" etag="W-f4iWhvaxtJEiM6STqX" type="github">
  <diagram id="rvufnAlt21zzTY40ThZT" name="Page-1">
    <mxGraphModel dx="1434" dy="756" grid="1" gridSize="10" guides="1" tooltips="1" connect="1" arrows="1" fold="1" page="1" pageScale="1" pageWidth="850" pageHeight="1100" math="0" shadow="0">
      <root>
        <mxCell id="0" />
        <mxCell id="1" parent="0" />
        <mxCell id="zXwiSh8g8xGIUx75o5DV-7" value="" style="group" vertex="1" connectable="0" parent="1">
          <mxGeometry x="260" y="30" width="330" height="200" as="geometry" />
        </mxCell>
        <mxCell id="zXwiSh8g8xGIUx75o5DV-1" value="" style="shape=cylinder3;whiteSpace=wrap;html=1;boundedLbl=1;backgroundOutline=1;size=15;movable=1;resizable=1;rotatable=1;deletable=1;editable=1;connectable=1;" vertex="1" parent="zXwiSh8g8xGIUx75o5DV-7">
          <mxGeometry width="330" height="200" as="geometry" />
        </mxCell>
        <mxCell id="zXwiSh8g8xGIUx75o5DV-2" value="&lt;div&gt;User&lt;/div&gt;" style="swimlane;whiteSpace=wrap;html=1;startSize=30;" vertex="1" parent="zXwiSh8g8xGIUx75o5DV-7">
          <mxGeometry x="25" y="60" width="80" height="100" as="geometry" />
        </mxCell>
        <mxCell id="zXwiSh8g8xGIUx75o5DV-4" value="BOOKS" style="swimlane;whiteSpace=wrap;html=1;startSize=30;" vertex="1" parent="zXwiSh8g8xGIUx75o5DV-7">
          <mxGeometry x="125" y="60" width="80" height="100" as="geometry" />
        </mxCell>
        <mxCell id="zXwiSh8g8xGIUx75o5DV-5" value="Stores" style="swimlane;whiteSpace=wrap;html=1;startSize=30;" vertex="1" parent="zXwiSh8g8xGIUx75o5DV-7">
          <mxGeometry x="225" y="60" width="80" height="100" as="geometry" />
        </mxCell>
        <mxCell id="zXwiSh8g8xGIUx75o5DV-8" value="BD" style="text;html=1;strokeColor=none;fillColor=none;align=center;verticalAlign=middle;whiteSpace=wrap;rounded=0;" vertex="1" parent="zXwiSh8g8xGIUx75o5DV-7">
          <mxGeometry x="135" width="60" height="30" as="geometry" />
        </mxCell>
        <mxCell id="zXwiSh8g8xGIUx75o5DV-12" value="" style="group" vertex="1" connectable="0" parent="1">
          <mxGeometry x="130" y="390" width="140" height="160" as="geometry" />
        </mxCell>
        <mxCell id="zXwiSh8g8xGIUx75o5DV-9" value="" style="shape=cylinder3;whiteSpace=wrap;html=1;boundedLbl=1;backgroundOutline=1;size=15;" vertex="1" parent="zXwiSh8g8xGIUx75o5DV-12">
          <mxGeometry width="140" height="160" as="geometry" />
        </mxCell>
        <mxCell id="zXwiSh8g8xGIUx75o5DV-10" value="&lt;div&gt;BD1&lt;/div&gt;" style="text;html=1;strokeColor=none;fillColor=none;align=center;verticalAlign=middle;whiteSpace=wrap;rounded=0;" vertex="1" parent="zXwiSh8g8xGIUx75o5DV-12">
          <mxGeometry x="40" width="60" height="30" as="geometry" />
        </mxCell>
        <mxCell id="zXwiSh8g8xGIUx75o5DV-11" value="&lt;div&gt;USER&lt;/div&gt;" style="swimlane;whiteSpace=wrap;html=1;startSize=23;" vertex="1" parent="zXwiSh8g8xGIUx75o5DV-12">
          <mxGeometry x="35" y="55" width="70" height="90" as="geometry" />
        </mxCell>
        <mxCell id="zXwiSh8g8xGIUx75o5DV-13" value="" style="group" vertex="1" connectable="0" parent="1">
          <mxGeometry x="355" y="390" width="140" height="160" as="geometry" />
        </mxCell>
        <mxCell id="zXwiSh8g8xGIUx75o5DV-14" value="" style="shape=cylinder3;whiteSpace=wrap;html=1;boundedLbl=1;backgroundOutline=1;size=15;" vertex="1" parent="zXwiSh8g8xGIUx75o5DV-13">
          <mxGeometry width="140" height="160" as="geometry" />
        </mxCell>
        <mxCell id="zXwiSh8g8xGIUx75o5DV-15" value="&lt;div&gt;BD1&lt;/div&gt;" style="text;html=1;strokeColor=none;fillColor=none;align=center;verticalAlign=middle;whiteSpace=wrap;rounded=0;" vertex="1" parent="zXwiSh8g8xGIUx75o5DV-13">
          <mxGeometry x="40" width="60" height="30" as="geometry" />
        </mxCell>
        <mxCell id="zXwiSh8g8xGIUx75o5DV-16" value="&lt;div&gt;USER&lt;/div&gt;" style="swimlane;whiteSpace=wrap;html=1;startSize=23;" vertex="1" parent="zXwiSh8g8xGIUx75o5DV-13">
          <mxGeometry x="35" y="55" width="70" height="90" as="geometry" />
        </mxCell>
        <mxCell id="zXwiSh8g8xGIUx75o5DV-17" value="" style="group" vertex="1" connectable="0" parent="1">
          <mxGeometry x="580" y="390" width="140" height="160" as="geometry" />
        </mxCell>
        <mxCell id="zXwiSh8g8xGIUx75o5DV-18" value="" style="shape=cylinder3;whiteSpace=wrap;html=1;boundedLbl=1;backgroundOutline=1;size=15;" vertex="1" parent="zXwiSh8g8xGIUx75o5DV-17">
          <mxGeometry width="140" height="160" as="geometry" />
        </mxCell>
        <mxCell id="zXwiSh8g8xGIUx75o5DV-19" value="&lt;div&gt;BD1&lt;/div&gt;" style="text;html=1;strokeColor=none;fillColor=none;align=center;verticalAlign=middle;whiteSpace=wrap;rounded=0;" vertex="1" parent="zXwiSh8g8xGIUx75o5DV-17">
          <mxGeometry x="40" width="60" height="30" as="geometry" />
        </mxCell>
        <mxCell id="zXwiSh8g8xGIUx75o5DV-20" value="&lt;div&gt;USER&lt;/div&gt;" style="swimlane;whiteSpace=wrap;html=1;startSize=23;" vertex="1" parent="zXwiSh8g8xGIUx75o5DV-17">
          <mxGeometry x="35" y="55" width="70" height="90" as="geometry" />
        </mxCell>
      </root>
    </mxGraphModel>
  </diagram>
</mxfile>
